<svg preserveAspectRatio="none" overflow="visible" style="display: block;" width="48.0966" height="376.452" viewBox="0 0 48.0966 376.452" fill="none" xmlns="http://www.w3.org/2000/svg">
<path id="Vector 3406" d="M0.920805 375.238C0.956617 375.579 1.11638 375.898 1.37606 376.125C1.63564 376.353 1.97209 376.469 2.31355 376.45C2.65501 376.43 2.97576 376.275 3.20739 376.02C3.43913 375.764 3.561 375.428 3.55729 375.086C3.55729 375.086 3.55729 375.086 3.55729 375.086C3.59531 368.888 3.93338 362.647 4.28526 356.389C5.78681 331.396 8.08019 306.431 10.3014 281.424C12.2449 259.805 14.5017 238.447 17.0012 216.796C24.6428 151.019 34.0521 85.4288 44.9025 20.0782C45.9333 13.9222 46.9876 7.707 48.0756 1.56329C48.1368 1.2212 48.0636 0.867347 47.8681 0.578825C47.6727 0.29031 47.3717 0.0908905 47.0307 0.0243022C46.6897 -0.042286 46.3358 0.0292555 46.0462 0.223053C45.7566 0.416844 45.5556 0.717143 45.4836 1.05715C44.1985 7.19022 42.9585 13.3697 41.7463 19.5028C28.9874 84.5845 18.3724 150.106 10.2397 215.99C7.57951 237.677 5.23836 259.09 3.28718 280.794C1.05731 305.898 -0.311158 331.084 0.0607133 356.302C0.178262 362.635 0.363691 368.855 0.920805 375.238Z" fill="#A90831"/>
</svg>
